<svg width="85" height="40" viewBox="0 0 85 40" fill="none" xmlns="http://www.w3.org/2000/svg">
<path d="M30.367 0C28.315 0 26.634 1.63736 26.634 3.6361V36.3639C26.634 38.3626 28.315 40 30.367 40H80.767C82.819 40 84.5 38.3626 84.5 36.3639V3.6361C84.5 1.63736 82.819 0 80.767 0H30.367ZM30.367 1.81805H80.767C81.8171 1.81805 82.6335 2.61326 82.6335 3.6361V36.3639C82.6335 37.3868 81.8171 38.182 80.767 38.182H30.367C29.3168 38.182 28.5005 37.3867 28.5005 36.3639V3.6361C28.5005 2.61322 29.3169 1.81805 30.367 1.81805ZM1.4336 8.18163C0.917967 8.18163 0.5 8.58874 0.5 9.09099C0.5 9.59324 0.917967 10.0004 1.4336 10.0004L20.1003 9.99972C20.6159 9.99972 21.0339 9.59261 21.0339 9.09036C21.0339 8.58811 20.6159 8.18099 20.1003 8.18099L1.4336 8.18163ZM5.1686 19.0907C4.65297 19.0907 4.235 19.4978 4.235 20.0001C4.235 20.5023 4.65297 20.9094 5.1686 20.9094H20.1023C20.6179 20.9094 21.0359 20.5023 21.0359 20.0001C21.0359 19.4978 20.6179 19.0907 20.1023 19.0907H5.1686ZM8.90161 29.9998C8.38597 29.9998 7.96801 30.4069 7.96801 30.9092C7.96801 31.4114 8.38597 31.8185 8.90161 31.8185H20.1014C20.6171 31.8185 21.0351 31.4114 21.0351 30.9092C21.0351 30.4069 20.6171 29.9998 20.1014 29.9998H8.90161Z" fill="#B99D6A"/>
<path d="M37.1642 10.625C36.6577 10.1691 36.9526 9.18237 37.631 9.06252C37.7743 9.01432 38.2526 9.08979 38.5065 9.34661L53.3808 23.722C54.4667 24.7715 56.638 24.7709 57.7265 23.722L72.6308 9.34661C72.9746 9.00417 73.5924 8.98325 73.9433 9.31807C74.2943 9.6529 74.3157 10.2826 73.972 10.625L63.8508 20.3692L73.9427 29.3182C74.3014 29.6454 74.3365 30.2758 74.0006 30.6252C73.6647 30.9746 73.0175 30.9803 72.6588 30.6531L62.5091 21.6755L59.0384 24.9997C57.1498 26.8204 53.9551 26.8235 52.0678 24.9997L48.6264 21.6755L38.4768 30.6531C38.118 30.9809 37.4709 30.9746 37.135 30.6252C36.799 30.2758 36.8342 29.6454 37.1936 29.3182L47.2854 20.3978L37.1642 10.625Z" fill="#B99D6A"/>
</svg>
