<svg width="24" height="25" viewBox="0 0 24 25" fill="none" xmlns="http://www.w3.org/2000/svg">
<rect y="0.15918" width="24" height="24" rx="12" fill="white"/>
<g clip-path="url(#clip0_5_359)">
<path fill-rule="evenodd" clip-rule="evenodd" d="M12.0003 17.1429C13.2114 15.7241 15.4841 12.6266 15.4841 10.6514C15.4841 8.73159 13.9244 7.17529 12.0003 7.17529C10.0763 7.17529 8.5166 8.73153 8.5166 10.6514C8.5166 12.6266 10.7893 15.7241 12.0003 17.1429ZM13.6017 10.6514C13.6017 11.5341 12.8849 12.2493 12.0003 12.2493C11.1158 12.2493 10.399 11.5341 10.399 10.6514C10.399 9.7688 11.1158 9.05316 12.0003 9.05316C12.8849 9.05316 13.6017 9.76873 13.6017 10.6514Z" fill="#202020"/>
</g>
<defs>
<clipPath id="clip0_5_359">
<rect width="7" height="10" fill="white" transform="translate(8.5 7.15918)"/>
</clipPath>
</defs>
</svg>
